<svg width="92" height="44" viewBox="0 0 92 44" fill="none" xmlns="http://www.w3.org/2000/svg">
<path fill-rule="evenodd" clip-rule="evenodd" d="M35.2219 15.3772C35.4135 15.3772 35.5713 15.5216 35.5914 15.7069L35.5936 15.7472L35.5935 17.4586C35.5935 17.6493 35.4486 17.8063 35.2623 17.8264L35.2218 17.8286H34.1804C33.9886 17.8286 33.8309 17.6843 33.8107 17.4989L33.8085 17.4586L33.8082 16.9755L32.6106 16.9756C32.4189 16.9756 32.2612 16.8313 32.241 16.6459L32.2388 16.6056V15.7472C32.2388 15.5566 32.3838 15.3995 32.57 15.3794L32.6106 15.3772H35.2219ZM49.8314 7.5366C51.2548 7.5366 52.3583 8.60756 52.4011 10.0117L52.4023 10.0963V12.656H55.4875C55.9344 12.656 56.1536 12.457 56.1718 12.0327L56.173 11.9734V9.58435C56.173 9.39992 56.2967 9.26373 56.474 9.24521L56.5158 9.24306H57.5442C57.7295 9.24306 57.8662 9.36608 57.8848 9.54268L57.887 9.58435V11.9734C57.887 13.3887 56.9784 14.3229 55.5775 14.3612L55.4875 14.3624H53.2593C53.0706 14.3624 52.9294 14.3264 52.8112 14.196L52.7764 14.154L52.4023 13.6799V14.0211C52.4023 14.2052 52.2785 14.3417 52.1013 14.3603L52.0595 14.3624H46.5749C46.5749 15.7806 45.3326 17.0442 43.9146 17.0914L43.8326 17.0928H41.0861C39.5719 17.0928 38.3882 15.9429 38.3489 14.449L38.3479 14.3624V11.2908C38.3479 11.1064 38.4715 10.9702 38.6488 10.9517L38.6907 10.9495H39.7191C39.9043 10.9495 40.0411 11.0726 40.0597 11.2492L40.0619 11.2908L40.0583 14.3566C40.0583 14.9055 40.4865 15.3533 41.0264 15.3846L41.0869 15.3863H43.8326C44.2831 15.3863 44.821 14.8668 44.8588 14.4126L44.8609 14.3624H43.4898C43.3043 14.3624 43.1677 14.2396 43.1491 14.0629L43.147 14.0211V12.9973C43.147 12.8127 43.2704 12.6766 43.4479 12.6581L43.4898 12.656H50.6884V10.0963C50.6884 9.64971 50.3292 9.27423 49.8871 9.2449L49.8314 9.24306H46.4035C46.1969 9.24306 46.11 8.94143 46.2121 8.76152L46.9177 7.70725C47.016 7.57764 47.255 7.54635 47.4535 7.5389L47.6033 7.5366H49.8314ZM56.8586 15.3863C57.0441 15.3863 57.1807 15.5092 57.1993 15.6859L57.2014 15.7276V16.7515C57.2014 16.9361 57.078 17.0721 56.9005 17.0906L56.8586 17.0928H54.1163C53.9309 17.0928 53.7942 16.9699 53.7757 16.7932L53.7735 16.7515V15.7276C53.7735 15.543 53.8969 15.407 54.0744 15.3885L54.1163 15.3863H56.8586ZM49.1458 15.3863C49.3312 15.3863 49.4679 15.5092 49.4865 15.6859L49.4886 15.7276V16.7515C49.4886 16.9361 49.3652 17.0721 49.1877 17.0906L49.1458 17.0928H47.9461C47.7607 17.0928 47.624 16.9699 47.6054 16.7932L47.6033 16.7515V15.7276C47.6033 15.543 47.7267 15.407 47.9042 15.3885L47.9461 15.3863H49.1458ZM17.7714 9.24306C17.9567 9.24306 18.0935 9.36611 18.1121 9.54263L18.1143 9.58429V12.6559L19.1428 12.656C19.6906 12.656 20.1384 12.2278 20.1697 11.6878L20.1714 11.6274V9.58435C20.1714 9.39999 20.2955 9.26374 20.4728 9.24521L20.5146 9.24306H21.525C21.7109 9.24306 21.864 9.38324 21.8836 9.56335L21.8857 9.60252L21.8856 11.8132C21.8858 12.1105 21.8342 12.3973 21.7394 12.664L21.8927 12.663C22.4378 12.6592 22.8815 12.232 22.9125 11.6946L22.9143 11.6344V9.58435C22.9143 9.39999 23.0384 9.26374 23.2156 9.24521L23.2574 9.24306H24.2679C24.4538 9.24306 24.6069 9.38324 24.6264 9.56335L24.6285 9.60252L24.6284 11.8132C24.629 12.5144 24.3409 13.1571 23.8794 13.6157C23.4423 14.0527 22.8384 14.3336 22.1758 14.3603L22.0707 14.3624H21.6077C21.5087 14.3624 21.4147 14.3219 21.3471 14.2515L20.9486 13.7857C20.5342 14.1241 20.0067 14.3366 19.4354 14.3602L19.3278 14.3624L18.1143 14.351C18.1143 15.6494 17.084 16.7066 15.7968 16.7501L15.7143 16.7515H13.6571C12.3592 16.7515 11.302 15.7213 11.2585 14.434L11.2571 14.3515V10.2669C11.2571 10.0825 11.3807 9.94632 11.5581 9.9278L11.6 9.92564H12.6285C12.8139 9.92564 12.9507 10.0487 12.9692 10.2252L12.9714 10.2669V14.0165C12.9714 14.5642 13.3996 15.012 13.9395 15.0433L14 15.045H15.3714C15.9192 15.045 16.3669 14.6168 16.3982 14.0769L16.4 14.0165V9.58429C16.4 9.39995 16.5236 9.26373 16.701 9.24521L16.7428 9.24306H17.7714ZM62.3433 7.5366C63.7649 7.5366 64.7031 8.44127 64.7416 9.83596L64.7428 9.92564V11.9734C64.7428 13.3887 63.8342 14.3229 62.4334 14.3612L62.3433 14.3624H59.2582C59.073 14.3624 58.9361 14.2394 58.9175 14.0628L58.9154 14.0211V12.9973C58.9154 12.8128 59.039 12.6766 59.2163 12.6581L59.2582 12.656H62.3433C62.7903 12.656 63.0094 12.457 63.0276 12.0327L63.0289 11.9734V9.92564C63.0289 9.48068 62.8292 9.26243 62.4028 9.2443L62.3433 9.24306H59.2582C59.073 9.24306 58.9361 9.11998 58.9175 8.94343L58.9154 8.90177V7.87789C58.9154 7.69346 59.039 7.55727 59.2163 7.53875L59.2582 7.5366H62.3433ZM31.4934 6.17143C31.6786 6.17143 31.8154 6.29451 31.834 6.47106L31.8362 6.51272V11.9734C31.8362 12.2187 31.8143 12.4466 31.7713 12.6564L34.0571 12.656C34.2951 12.6554 34.5079 12.5468 34.6649 12.3942C34.8047 12.2554 34.8944 12.0767 34.9113 11.8719L34.9143 11.8028V9.59156C34.9143 9.40324 35.034 9.26287 35.217 9.24499L35.2571 9.24306H36.2857C36.4764 9.24306 36.6086 9.36336 36.6265 9.5421L36.6285 9.58435V11.7718C36.6291 12.4844 36.3321 13.1375 35.8563 13.6036C35.4058 14.0477 34.8422 14.3331 34.165 14.3603L34.0571 14.3624H31.8624C31.7604 14.3624 31.6635 14.3212 31.5938 14.2497L31.5657 14.2172L31.2071 13.7515C30.8216 14.1307 30.2654 14.3397 29.5562 14.3607L29.4366 14.3624H25.6659C25.4807 14.3624 25.3439 14.2395 25.3253 14.0628L25.3231 14.0211V12.9973C25.3231 12.8129 25.4467 12.6767 25.6241 12.6581L25.6659 12.656H29.4366C29.8836 12.656 30.1028 12.4571 30.121 12.0327L30.1222 11.9734V6.51272C30.1222 6.32835 30.2458 6.19211 30.4232 6.17359L30.465 6.17143H31.4934ZM26.2344 6.17143C26.4166 6.17143 26.6158 6.25012 26.6652 6.42478L28.0712 11.1655C28.1245 11.3542 28.0032 11.4994 27.8063 11.4994H26.6886C26.5027 11.4994 26.3394 11.3764 26.289 11.1982L24.9804 6.51272C24.9266 6.32259 25.1247 6.17143 25.3231 6.17143H26.2344Z" fill="#A63489"/>
<path fill-rule="evenodd" clip-rule="evenodd" d="M80.1451 10.7442H80.2509C80.5224 10.7442 80.7429 10.9644 80.7429 11.2364V12.7632C80.7429 13.0348 80.5224 13.2552 80.2509 13.2552H80.182C80.1546 13.2584 80.1267 13.2594 80.0984 13.2572C78.9924 13.1745 77.8957 13.5755 77.104 14.3672C76.3123 15.159 75.9116 16.2559 75.9943 17.3621C75.995 17.3713 75.9946 17.3802 75.9942 17.389C75.994 17.3934 75.9938 17.3978 75.9937 17.4021L75.9941 17.508C75.9941 17.7795 75.7739 18 75.5022 18H73.9757C73.704 18 73.4836 17.7795 73.4836 17.508V17.4021L73.4902 17.4009C73.4901 17.3964 73.4899 17.3919 73.4896 17.3874C73.4892 17.3791 73.4887 17.3708 73.4894 17.3621C73.5724 16.2559 73.1714 15.159 72.3797 14.3672C71.5882 13.5755 70.4914 13.1745 69.3853 13.2572C69.357 13.2594 69.3292 13.2584 69.3019 13.2552H69.2348C68.9631 13.2552 68.7429 13.0348 68.7429 12.7632V11.2364C68.7429 10.9644 68.9631 10.7442 69.2348 10.7442H69.3404L69.341 10.747C69.345 10.7469 69.3489 10.7467 69.3529 10.7465C69.3636 10.7461 69.3743 10.7456 69.3853 10.7464C70.4914 10.8293 71.5882 10.4283 72.3797 9.63624C73.1714 8.84477 73.5724 7.74767 73.4894 6.64135C73.4887 6.63126 73.4892 6.62127 73.4897 6.61139C73.4899 6.60733 73.4901 6.60329 73.4902 6.59926L73.4836 6.59786V6.49203C73.4836 6.22026 73.704 6 73.9757 6H75.5022C75.7739 6 75.9941 6.22026 75.9941 6.49203V6.59786C75.9942 6.60219 75.9938 6.60649 75.994 6.61078C75.9945 6.62096 75.995 6.63105 75.9943 6.64135C75.9116 7.74767 76.3123 8.84477 77.104 9.63624C77.8957 10.4283 78.9924 10.8293 80.0984 10.7464C80.1098 10.7455 80.1209 10.746 80.1319 10.7465C80.1361 10.7467 80.1403 10.7469 80.1445 10.747L80.1451 10.7442ZM74.743 15C75.0248 14.3408 75.4308 13.7323 75.9506 13.2119C76.4718 12.6899 77.0822 12.2824 77.7429 12C77.0822 11.7176 76.4718 11.3099 75.9506 10.7881C75.4308 10.2679 75.0248 9.65876 74.743 9C74.4609 9.65876 74.0549 10.2679 73.5351 10.7881C73.0139 11.3099 72.4036 11.7176 71.7429 12C72.4036 12.2824 73.0139 12.6899 73.5351 13.2119C74.0549 13.7323 74.4609 14.3408 74.743 15Z" fill="#A63489"/>
<rect x="1" y="1" width="90" height="22" rx="3" stroke="#A63489" stroke-width="2"/>
<path d="M5.8841 34.43H4.4191L4.1841 28.48H6.1141L5.8841 34.43ZM4.0791 36.06L5.1191 35.01L6.1791 36.07L5.1291 37.12L4.0791 36.06ZM10.5236 32.615V33.98C10.5236 34.1233 10.5969 34.2383 10.7436 34.325C10.8603 34.3983 10.9786 34.435 11.0986 34.435H11.3286V36.075H11.0986C10.9053 36.075 10.7003 36.0433 10.4836 35.98C10.3869 36.7167 10.1386 37.31 9.73859 37.76C9.15526 38.4233 8.30193 38.755 7.17859 38.755H6.68359V37.115H7.17859C7.79193 37.115 8.22859 36.9767 8.48859 36.7C8.75193 36.4233 8.88359 35.96 8.88359 35.31V32.615H10.5236ZM15.4211 33.535C15.4477 33.695 15.4611 33.8483 15.4611 33.995C15.4611 34.4483 15.3311 34.855 15.0711 35.215C14.6544 35.7883 13.9761 36.075 13.0361 36.075H11.0811V34.435H13.0011C13.3011 34.435 13.5127 34.395 13.6361 34.315C13.7627 34.2383 13.8261 34.1167 13.8261 33.95C13.8261 33.9 13.8194 33.845 13.8061 33.785C13.7727 33.615 13.7394 33.4417 13.7061 33.265C13.6927 33.1983 13.6794 33.1267 13.6661 33.05L13.6461 32.955L13.6311 32.86C13.5811 32.5867 13.5427 32.3917 13.5161 32.275L15.0811 31.8C15.1811 32.27 15.2944 32.8483 15.4211 33.535ZM14.3911 31.04L13.4111 30.05L14.3811 29.05L15.3811 30.05L14.3911 31.04ZM12.2961 31.045L11.3161 30.055L12.2811 29.055L13.2811 30.055L12.2961 31.045ZM19.5359 33.485C19.8126 33.3283 20.0859 33.1533 20.3559 32.96C20.5993 32.7833 20.7409 32.6667 20.7809 32.61C20.7809 32.6033 20.7759 32.59 20.7659 32.57C20.7526 32.5467 20.7359 32.525 20.7159 32.505C20.6626 32.445 20.6076 32.415 20.5509 32.415H18.6959C18.6093 32.415 18.5426 32.4367 18.4959 32.48C18.4793 32.4967 18.4659 32.5133 18.4559 32.53L18.4409 32.56V32.565C18.5309 32.645 18.7143 32.8 18.9909 33.03L19.1459 33.155C19.2059 33.2017 19.2559 33.2433 19.2959 33.28C19.3993 33.3667 19.4793 33.435 19.5359 33.485ZM20.3609 30.85C20.7109 30.85 21.0343 30.94 21.3309 31.12C21.6243 31.2967 21.8493 31.5317 22.0059 31.825C22.1393 32.075 22.2059 32.3367 22.2059 32.61C22.2059 32.6433 22.2043 32.675 22.2009 32.705C22.1809 33.0117 22.0826 33.2983 21.9059 33.565C21.7993 33.7217 21.6493 33.88 21.4559 34.04C21.3793 34.1067 21.2909 34.175 21.1909 34.245C21.1243 34.295 21.0359 34.3583 20.9259 34.435H22.8709V36.075H21.0509C20.7776 36.075 20.5043 36.0183 20.2309 35.905C20.0376 35.825 19.8276 35.7067 19.6009 35.55C19.5309 35.5033 19.4359 35.435 19.3159 35.345C18.7793 35.6217 18.4059 35.8617 18.1959 36.065C17.9526 36.305 17.8309 36.5833 17.8309 36.9C17.8309 37.2367 17.9526 37.53 18.1959 37.78C18.4359 38.0267 18.7209 38.15 19.0509 38.15H22.0159V39.785H19.0509C18.6543 39.785 18.2809 39.7083 17.9309 39.555C17.5876 39.405 17.2859 39.1967 17.0259 38.93C16.7659 38.6667 16.5626 38.3617 16.4159 38.015C16.2659 37.6483 16.1909 37.2767 16.1909 36.9C16.1909 36.0533 16.5276 35.3383 17.2009 34.755C17.4209 34.565 17.6759 34.3833 17.9659 34.21L17.1409 33.505L16.8509 32.88C16.8509 32.68 16.8743 32.4867 16.9209 32.3C16.9809 32.0567 17.0776 31.8367 17.2109 31.64C17.3776 31.39 17.5959 31.1967 17.8659 31.06C18.1426 30.92 18.4609 30.85 18.8209 30.85H20.3609ZM26.9582 33.535C26.9848 33.695 26.9982 33.8483 26.9982 33.995C26.9982 34.4483 26.8682 34.855 26.6082 35.215C26.1915 35.7883 25.5132 36.075 24.5732 36.075H22.6182V34.435H24.5382C24.8382 34.435 25.0498 34.395 25.1732 34.315C25.2998 34.2383 25.3632 34.1167 25.3632 33.95C25.3632 33.9 25.3565 33.845 25.3432 33.785C25.3098 33.615 25.2765 33.4417 25.2432 33.265C25.2298 33.1983 25.2165 33.1267 25.2032 33.05L25.1832 32.955L25.1682 32.86C25.1182 32.5867 25.0798 32.3917 25.0532 32.275L26.6182 31.8C26.7182 32.27 26.8315 32.8483 26.9582 33.535ZM25.7932 38.935L24.8132 37.945L25.7832 36.945L26.7832 37.945L25.7932 38.935ZM23.6832 38.94L22.7032 37.95L23.6682 36.95L24.6682 37.95L23.6832 38.94ZM31.3097 32.615V33.98C31.3097 34.1233 31.3831 34.2383 31.5297 34.325C31.6464 34.3983 31.7647 34.435 31.8847 34.435H32.1147V36.075H31.8847C31.6914 36.075 31.4864 36.0433 31.2697 35.98C31.1731 36.7167 30.9247 37.31 30.5247 37.76C29.9414 38.4233 29.0881 38.755 27.9647 38.755H27.4697V37.115H27.9647C28.5781 37.115 29.0147 36.9767 29.2747 36.7C29.5381 36.4233 29.6697 35.96 29.6697 35.31V32.615H31.3097ZM36.0272 34.33C36.1539 34.2367 36.2172 34.0717 36.2172 33.835V32.62H37.8572V33.835C37.8572 34.0417 37.8955 34.1883 37.9722 34.275C38.0622 34.3817 38.2272 34.435 38.4672 34.435C38.8472 34.435 39.0372 34.3033 39.0372 34.04C39.0372 33.9833 39.0289 33.92 39.0122 33.85C38.8222 33.0667 38.6989 32.5417 38.6422 32.275L40.2322 31.895C40.3289 32.295 40.4539 32.82 40.6072 33.47C40.6405 33.6133 40.6572 33.7633 40.6572 33.92C40.6572 34.0467 40.6455 34.1783 40.6222 34.315C40.5655 34.625 40.4539 34.9067 40.2872 35.16C39.8905 35.77 39.3122 36.075 38.5522 36.075C38.2089 36.075 37.8872 36.0233 37.5872 35.92C37.3839 35.8433 37.1989 35.7433 37.0322 35.62C36.6355 35.9233 36.1805 36.075 35.6672 36.075C35.1272 36.075 34.6589 35.9233 34.2622 35.62C33.9922 35.9233 33.5139 36.075 32.8272 36.075H31.8672V34.435H32.8272C33.0672 34.435 33.2322 34.3817 33.3222 34.275C33.3989 34.1883 33.4372 34.0417 33.4372 33.835V32.62H35.0772V33.835C35.0772 34.0717 35.1339 34.2367 35.2472 34.33C35.3272 34.4 35.4522 34.435 35.6222 34.435C35.7989 34.435 35.9339 34.4 36.0272 34.33ZM47.8266 34.44V33.925C47.8266 33.6183 47.7616 33.375 47.6316 33.195C47.5016 33.0183 47.325 32.93 47.1016 32.93C46.875 32.93 46.695 33.0183 46.5616 33.195C46.4383 33.3583 46.3766 33.57 46.3766 33.83C46.3766 33.86 46.3783 33.8917 46.3816 33.925C46.3916 34.1017 46.47 34.235 46.6166 34.325C46.7433 34.4017 46.905 34.44 47.1016 34.44H47.8266ZM47.1016 31.29C47.8383 31.29 48.425 31.5583 48.8616 32.095C49.265 32.585 49.4666 33.195 49.4666 33.925V35.76C49.4666 36.92 48.9883 37.7483 48.0316 38.245C47.6616 38.4383 47.2216 38.5783 46.7116 38.665C46.315 38.735 45.8816 38.77 45.4116 38.77V37.13C46.245 37.13 46.8716 37.0133 47.2916 36.78C47.6316 36.5933 47.8016 36.3583 47.8016 36.075H47.1016C46.505 36.075 46 35.915 45.5866 35.595C45.0833 35.2083 44.8316 34.6517 44.8316 33.925C44.8316 33.235 44.9983 32.65 45.3316 32.17C45.7383 31.5833 46.3283 31.29 47.1016 31.29ZM56.3723 33.93C56.5523 33.7833 56.6423 33.59 56.6423 33.35V33.325C56.6389 33.225 56.6189 33.0917 56.5823 32.925C56.5723 32.875 56.5556 32.7983 56.5323 32.695L56.5023 32.565L56.4723 32.43C55.9423 32.6133 55.5923 32.79 55.4223 32.96C55.2656 33.1167 55.1873 33.2883 55.1873 33.475V33.51C55.1973 33.7067 55.2839 33.8667 55.4473 33.99C55.5506 34.0667 55.6839 34.105 55.8473 34.105C56.0506 34.105 56.2256 34.0467 56.3723 33.93ZM58.0823 32.14C58.1089 32.2533 58.1423 32.3983 58.1823 32.575L58.2323 32.78L58.2773 32.975C58.3473 33.275 58.4139 33.545 58.4773 33.785C58.5506 34.055 58.6823 34.23 58.8723 34.31C58.9856 34.36 59.1306 34.395 59.3073 34.415C59.4273 34.4283 59.5873 34.435 59.7873 34.435V36.075C59.4873 36.075 59.2289 36.06 59.0123 36.03C58.7123 35.99 58.4423 35.9167 58.2023 35.81C57.8823 35.6633 57.6156 35.4633 57.4023 35.21L57.3423 35.14C57.1723 35.29 56.9789 35.41 56.7623 35.5C56.4856 35.61 56.1923 35.665 55.8823 35.665L55.8323 35.66H55.7773C55.3973 35.6433 55.0523 35.5517 54.7423 35.385C54.1623 35.0817 53.8056 34.605 53.6723 33.955C53.6356 33.7817 53.6173 33.61 53.6173 33.44C53.6173 33.2167 53.6489 32.9983 53.7123 32.785C53.8356 32.4083 54.0506 32.0733 54.3573 31.78C54.6939 31.4567 55.2789 31.1617 56.1123 30.895L56.0173 30.455L57.6173 30.09C57.8073 30.9233 57.9623 31.6067 58.0823 32.14ZM63.3791 32.705L63.3691 32.59C63.3591 32.5067 63.3491 32.4317 63.3391 32.365C63.3124 32.1883 63.2741 32.04 63.2241 31.92C63.0974 31.6033 62.8724 31.43 62.5491 31.4L62.4991 31.395H62.4541C62.2374 31.395 62.0657 31.46 61.9391 31.59C61.8257 31.71 61.7691 31.8617 61.7691 32.045V32.09C61.7824 32.4133 61.9457 32.6233 62.2591 32.72C62.4557 32.78 62.8324 32.81 63.3891 32.81L63.3791 32.705ZM62.5441 29.84C63.4541 29.84 64.1141 30.2383 64.5241 31.035C64.8307 31.625 64.9841 32.39 64.9841 33.33C64.9841 34.34 64.5974 35.0817 63.8241 35.555C63.2541 35.9017 62.5524 36.075 61.7191 36.075H59.6191V34.435H61.7191C62.2757 34.435 62.6874 34.3983 62.9541 34.325C62.1907 34.325 61.5674 34.1617 61.0841 33.835C60.5107 33.445 60.2241 32.8717 60.2241 32.115C60.2241 31.8917 60.2557 31.665 60.3191 31.435C60.3957 31.155 60.5141 30.9067 60.6741 30.69C61.0841 30.1233 61.7074 29.84 62.5441 29.84ZM61.1391 28.2L62.1791 27.15L63.2391 28.21L62.1841 29.26L61.1391 28.2ZM68.3703 32.615V33.98C68.3703 34.1233 68.4436 34.2383 68.5903 34.325C68.7069 34.3983 68.8253 34.435 68.9453 34.435H69.1753V36.075H68.9453C68.7519 36.075 68.5469 36.0433 68.3303 35.98C68.2336 36.7167 67.9853 37.31 67.5853 37.76C67.0019 38.4233 66.1486 38.755 65.0253 38.755H64.5303V37.115H65.0253C65.6386 37.115 66.0753 36.9767 66.3353 36.7C66.5986 36.4233 66.7303 35.96 66.7303 35.31V32.615H68.3703ZM75.5577 34.435C75.9377 34.435 76.1927 34.355 76.3227 34.195C76.3727 34.1317 76.4061 34.0533 76.4227 33.96C76.4361 33.8967 76.4427 33.8083 76.4427 33.695C76.4427 33.325 76.2044 33.14 75.7277 33.14C75.3911 33.14 74.9627 33.3317 74.4427 33.715C74.2627 33.8483 74.0861 33.9933 73.9127 34.15C73.7761 34.2767 73.6811 34.3717 73.6277 34.435H75.5577ZM75.6427 31.505C76.5394 31.505 77.1844 31.79 77.5777 32.36C77.7211 32.5667 77.8244 32.805 77.8877 33.075C77.9344 33.275 77.9577 33.475 77.9577 33.675C77.9577 34.6617 77.6127 35.3517 76.9227 35.745C76.6861 35.8783 76.4177 35.9717 76.1177 36.025C76.0111 36.045 75.9011 36.0583 75.7877 36.065L75.6577 36.075H72.6627C72.1294 36.075 71.6677 35.9333 71.2777 35.65C70.8677 35.9333 70.3444 36.075 69.7077 36.075H68.9277V34.435H69.7077C70.0511 34.435 70.2727 34.3817 70.3727 34.275C70.4027 34.245 70.4227 34.2017 70.4327 34.145C70.4427 34.105 70.4477 34.0583 70.4477 34.005V32.615H72.0877V33.935C72.4411 33.445 72.7794 33.04 73.1027 32.72C73.4694 32.3533 73.8394 32.0717 74.2127 31.875C74.6794 31.6283 75.1561 31.505 75.6427 31.505ZM81.3801 33.93C81.5601 33.7833 81.6501 33.59 81.6501 33.35V33.325C81.6467 33.225 81.6267 33.0917 81.5901 32.925C81.5801 32.875 81.5634 32.7983 81.5401 32.695L81.5101 32.565L81.4801 32.43C80.9501 32.6133 80.6001 32.79 80.4301 32.96C80.2734 33.1167 80.1951 33.2883 80.1951 33.475V33.51C80.2051 33.7067 80.2917 33.8667 80.4551 33.99C80.5584 34.0667 80.6917 34.105 80.8551 34.105C81.0584 34.105 81.2334 34.0467 81.3801 33.93ZM83.0901 32.14C83.1167 32.2533 83.1501 32.3983 83.1901 32.575L83.2401 32.78L83.2851 32.975C83.3551 33.275 83.4217 33.545 83.4851 33.785C83.5584 34.055 83.6901 34.23 83.8801 34.31C83.9934 34.36 84.1384 34.395 84.3151 34.415C84.4351 34.4283 84.5951 34.435 84.7951 34.435V36.075C84.4951 36.075 84.2367 36.06 84.0201 36.03C83.7201 35.99 83.4501 35.9167 83.2101 35.81C82.8901 35.6633 82.6234 35.4633 82.4101 35.21L82.3501 35.14C82.1801 35.29 81.9867 35.41 81.7701 35.5C81.4934 35.61 81.2001 35.665 80.8901 35.665L80.8401 35.66H80.7851C80.4051 35.6433 80.0601 35.5517 79.7501 35.385C79.1701 35.0817 78.8134 34.605 78.6801 33.955C78.6434 33.7817 78.6251 33.61 78.6251 33.44C78.6251 33.2167 78.6567 32.9983 78.7201 32.785C78.8434 32.4083 79.0584 32.0733 79.3651 31.78C79.7017 31.4567 80.2867 31.1617 81.1201 30.895L81.0251 30.455L82.6251 30.09C82.8151 30.9233 82.9701 31.6067 83.0901 32.14ZM88.0019 33.535C88.0285 33.695 88.0419 33.8483 88.0419 33.995C88.0419 34.4483 87.9119 34.855 87.6519 35.215C87.2352 35.7883 86.5569 36.075 85.6169 36.075H84.5469V34.435H85.5819C85.8819 34.435 86.0935 34.395 86.2169 34.315C86.3435 34.2383 86.4069 34.1167 86.4069 33.95C86.4069 33.9 86.4002 33.845 86.3869 33.785C86.3535 33.615 86.3202 33.4417 86.2869 33.265C86.2735 33.1983 86.2602 33.1267 86.2469 33.05L86.2269 32.955L86.2119 32.86C86.1619 32.5867 86.1235 32.3917 86.0969 32.275L87.6619 31.8C87.7619 32.27 87.8752 32.8483 88.0019 33.535ZM85.1369 37.815L86.1769 36.765L87.2369 37.825L86.1869 38.875L85.1369 37.815Z" fill="#A63489"/>
</svg>
